<svg width="111" height="55" viewBox="0 0 111 55" fill="none" xmlns="http://www.w3.org/2000/svg">
<path fill-rule="evenodd" clip-rule="evenodd" d="M58.5885 19.5781C58.5885 19.9886 58.4668 20.3898 58.2387 20.7311C58.0107 21.0724 57.6866 21.3384 57.3074 21.4955C56.9281 21.6526 56.5109 21.6937 56.1083 21.6136C55.7057 21.5335 55.3359 21.3359 55.0457 21.0456C54.7554 20.7554 54.5578 20.3856 54.4777 19.983C54.3976 19.5804 54.4387 19.1632 54.5958 18.7839C54.7529 18.4047 55.0189 18.0806 55.3602 17.8526C55.7015 17.6245 56.1027 17.5028 56.5132 17.5028C56.7859 17.502 57.0562 17.5551 57.3084 17.659C57.5605 17.763 57.7897 17.9159 57.9825 18.1088C58.1754 18.3016 58.3283 18.5308 58.4323 18.7829C58.5362 19.0351 58.5893 19.3054 58.5885 19.5781ZM50.0268 23.749V24.2623C49.6352 23.8385 49.1562 23.5047 48.6231 23.284C48.0899 23.0632 47.5152 22.9607 46.9386 22.9835C46.1123 22.9746 45.2929 23.1333 44.5296 23.4499C43.7664 23.7665 43.0752 24.2345 42.4979 24.8256C41.9205 25.4167 41.469 26.1187 41.1705 26.8892C40.872 27.6597 40.7328 28.4827 40.7612 29.3085C40.7319 30.1343 40.8703 30.9575 41.168 31.7283C41.4657 32.4991 41.9165 33.2016 42.4933 33.7934C43.07 34.3851 43.7607 34.8538 44.5236 35.1712C45.2866 35.4886 46.1059 35.648 46.9322 35.64C47.5121 35.6666 48.0907 35.5628 48.6252 35.3361C49.1597 35.1094 49.6365 34.7656 50.0204 34.33V34.8736C50.0196 34.9323 50.0305 34.9905 50.0525 35.0448C50.0745 35.0991 50.1072 35.1485 50.1487 35.1899C50.1902 35.2314 50.2395 35.2641 50.2938 35.2861C50.3482 35.3082 50.4064 35.3191 50.465 35.3182H53.0537V23.2833H50.487C50.3701 23.2865 50.2589 23.3344 50.1762 23.4171C50.0935 23.4998 50.0457 23.611 50.0424 23.7279L50.0268 23.749ZM50.0268 31.4453C49.7304 31.8536 49.341 32.1854 48.8909 32.4132C48.4407 32.641 47.9427 32.7582 47.4382 32.7552C45.394 32.7552 43.8311 31.4765 43.8311 29.3085C43.8311 27.1406 45.394 25.8619 47.4382 25.8619C47.9415 25.8657 48.4371 25.9859 48.8862 26.2132C49.3353 26.4404 49.7257 26.7685 50.0268 27.1718V31.4526V31.4453ZM54.9768 23.3035H58.066V35.3118H54.9768V23.2833V23.3035ZM100.78 22.9826C100.203 22.9598 99.6286 23.0623 99.0955 23.2831C98.5623 23.5038 98.0834 23.8376 97.6917 24.2614V17.522H94.6025V35.31H97.1903C97.3071 35.3067 97.4184 35.2589 97.501 35.1762C97.5837 35.0935 97.6316 34.9823 97.6348 34.8654V34.3218C98.0214 34.7524 98.4977 35.0928 99.0302 35.3192C99.5627 35.5455 100.138 35.6522 100.717 35.6317C101.542 35.638 102.361 35.4776 103.123 35.1601C103.885 34.8426 104.575 34.3746 105.152 33.784C105.728 33.1934 106.18 32.4924 106.479 31.7231C106.779 30.9537 106.92 30.1319 106.894 29.3067C106.921 28.4814 106.78 27.6592 106.481 26.8895C106.182 26.1198 105.73 25.4185 105.153 24.8278C104.576 24.237 103.886 23.7689 103.123 23.4517C102.361 23.1345 101.542 22.9746 100.717 22.9817L100.78 22.9826ZM100.258 32.725C99.7531 32.7321 99.2537 32.6167 98.8028 32.3885C98.352 32.1604 97.9632 31.8264 97.6697 31.415V27.1333C97.9809 26.7408 98.3734 26.4205 98.8203 26.1944C99.2672 25.9682 99.7578 25.8417 100.258 25.8234C102.303 25.8234 103.865 27.1021 103.865 29.27C103.865 31.438 102.303 32.7167 100.258 32.7167V32.725ZM93.0368 28.1911V35.3439H89.9477V28.5486C89.9477 26.5659 89.3298 25.7693 87.5827 25.7693C87.1119 25.7857 86.6496 25.8989 86.2246 26.1019C85.7996 26.3049 85.4209 26.5932 85.1123 26.949V35.3127H82.0231V23.2833H84.4504C84.5673 23.2865 84.6785 23.3344 84.7612 23.4171C84.8439 23.4998 84.8918 23.611 84.895 23.7279V24.2412C85.3213 23.8168 85.8301 23.4843 86.39 23.2644C86.9499 23.0444 87.5489 22.9417 88.1501 22.9625C89.3717 22.9173 90.5667 23.3265 91.5042 24.111C92.5913 25.0066 93.0048 26.1552 93.0048 28.1691L93.0368 28.1911ZM74.6118 22.9845C74.0352 22.9616 73.4605 23.0641 72.9274 23.2849C72.3942 23.5057 71.9153 23.8394 71.5236 24.2632V17.5239H68.4344V35.31H71.0231C71.14 35.3067 71.2512 35.2589 71.3339 35.1762C71.4166 35.0935 71.4644 34.9823 71.4677 34.8654V34.3218C71.8549 34.7532 72.3323 35.0942 72.866 35.3205C73.3997 35.5469 73.9766 35.6531 74.5559 35.6317C75.3814 35.638 76.1998 35.4776 76.9618 35.1601C77.7239 34.8426 78.414 34.3746 78.9908 33.784C79.5676 33.1934 80.0193 32.4924 80.3187 31.7231C80.6181 30.9537 80.7591 30.1319 80.7333 29.3067C80.7653 28.48 80.6285 27.6555 80.3313 26.8834C80.0341 26.1113 79.5827 25.4078 79.0046 24.816C78.4265 24.2241 77.734 23.7562 76.9691 23.4409C76.2042 23.1255 75.3831 22.9693 74.5559 22.9817L74.6118 22.9845ZM74.0967 32.725C73.5914 32.7321 73.092 32.6167 72.6412 32.3885C72.1903 32.1604 71.8015 31.8264 71.508 31.415V27.1333C71.8192 26.7408 72.2117 26.4205 72.6586 26.1944C73.1055 25.9682 73.5961 25.8417 74.0967 25.8234C76.1408 25.8234 77.7038 27.1021 77.7038 29.27C77.7038 31.438 76.1408 32.7167 74.0967 32.7167V32.725ZM65.7733 22.9808C66.248 22.9657 66.7223 23.0198 67.1813 23.1412V25.9829C67.1813 25.9829 64.6147 25.1368 63.0307 26.9399V35.3411H59.9415V23.2833H62.5302C62.6471 23.2865 62.7583 23.3344 62.841 23.4171C62.9236 23.4998 62.9715 23.611 62.9748 23.7279V24.2412C63.7072 23.4803 64.6997 23.0236 65.7541 22.9625L65.7733 22.9808ZM33.9283 34.2237L33.4462 33.0751L32.711 31.4435L32.6798 31.4123C30.4458 26.5439 28.0936 21.7305 25.6252 16.9766L25.5262 16.7933L24.7653 15.2625C24.4507 14.6357 24.0653 14.047 23.6168 13.508C23.1286 12.8929 22.5066 12.3973 21.7979 12.0591C21.0892 11.7209 20.3127 11.549 19.5275 11.5564C18.7476 11.559 17.9777 11.7316 17.2715 12.0624C16.5652 12.3931 15.9396 12.8739 15.4383 13.4713C15.0005 14.0183 14.6159 14.6058 14.2897 15.2258L13.4253 16.918C10.9548 21.7121 8.56967 26.5613 6.36508 31.3536L6.33392 31.415C6.15058 31.9403 5.88933 32.4784 5.62992 33.0522C5.46919 33.4024 5.30847 33.7852 5.14775 34.2008C4.74023 35.3011 4.60866 36.4845 4.76458 37.6475C4.93647 38.8153 5.40963 39.9183 6.13744 40.8477C6.86526 41.7771 7.82263 42.5008 8.91525 42.9476C9.73452 43.292 10.6152 43.4664 11.5039 43.46C11.7808 43.4554 12.0571 43.4349 12.3317 43.3986C13.4586 43.2549 14.5448 42.8851 15.5253 42.3115C17.0146 41.4233 18.3514 40.3013 19.4844 38.9885C20.6245 40.2941 21.9601 41.415 23.4435 42.3115C24.4239 42.8853 25.5102 43.2551 26.6372 43.3986C26.9117 43.4349 27.1881 43.4554 27.4649 43.46C28.3539 43.4693 29.2352 43.2949 30.0536 42.9476C31.1462 42.5008 32.1036 41.7771 32.8314 40.8477C33.5592 39.9183 34.0324 38.8153 34.2043 37.6475C34.4395 36.5048 34.3386 35.3185 33.9137 34.232L33.9283 34.2237ZM19.5293 35.8856C17.806 33.7113 16.6877 31.6726 16.3045 29.9429C16.148 29.3064 16.1144 28.6459 16.2055 27.9968C16.2687 27.516 16.4443 27.0569 16.7179 26.6566C17.038 26.2126 17.4608 25.8526 17.9502 25.6074C18.4396 25.3622 18.9811 25.2391 19.5284 25.2486C20.077 25.2275 20.622 25.345 21.1132 25.5901C21.6044 25.8352 22.026 26.2001 22.3389 26.6511C22.6126 27.0514 22.7881 27.5105 22.8513 27.9913C22.9429 28.6404 22.9093 29.301 22.7523 29.9374C22.3692 31.6295 21.2518 33.6435 19.5275 35.8801L19.5293 35.8856ZM32.2728 37.3862C32.1527 38.2039 31.8211 38.976 31.3107 39.626C30.8004 40.2761 30.1291 40.7815 29.3633 41.0923C28.5996 41.4153 27.7656 41.5365 26.9415 41.4443C26.0841 41.3382 25.2577 41.0564 24.5142 40.6165C23.1436 39.789 21.9151 38.7463 20.8759 37.5283C22.9824 34.9396 24.2612 32.5783 24.7424 30.4681C24.9502 29.5779 25.0045 28.6587 24.9028 27.7502C24.7842 26.969 24.4885 26.2253 24.0384 25.5759C23.5323 24.8535 22.8563 24.2667 22.07 23.8671C21.2837 23.4675 20.4112 23.2673 19.5293 23.2842C18.652 23.273 17.7848 23.4732 17.0011 23.8677C16.2174 24.2623 15.5402 24.8397 15.0267 25.5511C14.5766 26.2005 14.2809 26.9443 14.1623 27.7255C14.0272 28.6328 14.0819 29.5582 14.3227 30.4434C14.8048 32.5499 16.1138 34.946 18.1892 37.5347C17.1573 38.76 15.9275 39.8038 14.5509 40.623C13.8073 41.0724 12.9786 41.3627 12.1172 41.4755C11.294 41.5669 10.461 41.4568 9.68983 41.1546C8.92406 40.8438 8.25276 40.3384 7.74243 39.6884C7.2321 39.0383 6.90045 38.2662 6.78033 37.4485C6.67936 36.6137 6.77898 35.7668 7.07092 34.9781C7.16992 34.6573 7.32392 34.3603 7.48342 33.9588C7.70617 33.4455 7.96558 32.9028 8.21858 32.3592L8.24975 32.2978C10.4553 27.5311 12.8148 22.6865 15.2806 17.9547L15.3723 17.7255L16.1386 16.2552C16.3872 15.7484 16.6963 15.2735 17.0589 14.8408C17.3738 14.4708 17.7653 14.1736 18.2063 13.9699C18.6473 13.7661 19.1274 13.6605 19.6132 13.6605C20.099 13.6605 20.5791 13.7661 21.0201 13.9699C21.4611 14.1736 21.8526 14.4708 22.1675 14.8408C22.512 15.2724 22.8043 15.7432 23.0383 16.2433L23.8047 17.7136L23.8963 17.897C26.3237 22.66 28.696 27.5082 30.8951 32.2703V32.3015C31.1481 32.8148 31.3772 33.3886 31.6302 33.9011C31.7907 34.2842 31.9511 34.605 32.0427 34.9204C32.3079 35.7154 32.3842 36.5612 32.2655 37.3908L32.2728 37.3862Z" fill="#6B7280"/>
</svg>
