<svg width="128" height="43" viewBox="0 0 128 43" fill="none" xmlns="http://www.w3.org/2000/svg">
<path d="M16.4352 33.016C21.255 33.016 24.8869 31.4391 27.73 28.4761C30.6568 25.5461 31.5654 21.444 31.5654 18.1255C31.5654 17.095 31.4864 16.1502 31.3284 15.3568H16.4352V19.7815H27.0222C26.7062 22.2704 25.8733 24.0876 24.6143 25.3518C23.0709 26.8893 20.6637 28.5913 16.4352 28.5913C9.9177 28.5913 4.82041 23.337 4.82041 16.8185C4.82041 10.3 9.9177 5.04237 16.4352 5.04237C19.9486 5.04237 22.5208 6.42838 24.4138 8.20616L27.5358 5.08517C24.8869 2.56007 21.3735 0.620972 16.4352 0.620972C7.50518 0.620972 0 7.88682 0 16.8185C0 25.7469 7.50518 33.016 16.4352 33.016ZM43.6181 33.016C49.3827 33.016 54.084 28.5913 54.084 22.5831C54.084 16.542 49.3827 12.1568 43.6181 12.1568C37.8436 12.1568 33.1424 16.542 33.1424 22.5831C33.1424 28.5913 37.8436 33.016 43.6181 33.016ZM43.6181 28.9074C40.4543 28.9074 37.7251 26.3 37.7251 22.5831C37.7251 18.8333 40.4543 16.2687 43.6181 16.2687C46.7753 16.2687 49.5012 18.8333 49.5012 22.5831C49.5012 26.3 46.7753 28.9074 43.6181 28.9074ZM66.4494 33.016C72.2173 33.016 76.9185 28.5913 76.9185 22.5831C76.9185 16.542 72.2173 12.1568 66.4494 12.1568C60.6782 12.1568 55.977 16.542 55.977 22.5831C55.977 28.5913 60.6782 33.016 66.4494 33.016ZM66.4494 28.9074C63.2889 28.9074 60.5597 26.3 60.5597 22.5831C60.5597 18.8333 63.2889 16.2687 66.4494 16.2687C69.6099 16.2687 72.3358 18.8333 72.3358 22.5831C72.3358 26.3 69.6099 28.9074 66.4494 28.9074ZM88.8889 42.379C94.2584 42.379 98.8082 39.2218 98.8082 31.5148V12.7889H94.4593V14.4876H94.3012C93.2708 13.2629 91.2955 12.1568 88.8132 12.1568C83.5951 12.1568 78.8181 16.7395 78.8181 22.6259C78.8181 28.4761 83.5951 33.016 88.8132 33.016C91.2955 33.016 93.2708 31.9099 94.3012 30.6457H94.4593V32.1469C94.4593 36.1403 92.3259 38.2704 88.8889 38.2704C86.0872 38.2704 84.3457 36.2588 83.6313 34.5535L79.6445 36.216C80.7934 38.9848 83.8321 42.379 88.8889 42.379ZM89.2017 28.9074C86.0444 28.9074 83.3942 26.2638 83.3942 22.6259C83.3942 18.9518 86.0444 16.2687 89.2017 16.2687C92.3259 16.2687 94.7753 18.9518 94.7753 22.6259C94.7753 26.2638 92.3259 28.9074 89.2017 28.9074ZM106.548 1.72714H101.965V32.3839H106.548V1.72714ZM119.111 33.016C123.888 33.016 126.657 30.0959 127.802 28.3938L124.244 26.0267C123.062 27.7584 121.442 28.9074 119.111 28.9074C116.78 28.9074 115.118 27.8407 114.054 25.7469L128 19.9757L127.526 18.7938C126.657 16.4629 124.007 12.1568 118.598 12.1568C113.225 12.1568 108.76 16.3872 108.76 22.5831C108.76 28.4333 113.185 33.016 119.111 33.016ZM113.304 22.2704C113.185 18.244 116.425 16.1864 118.756 16.1864C120.573 16.1864 122.114 17.095 122.63 18.3988L113.304 22.2704Z" fill="#6B7280"/>
</svg>
