<svg width="137" height="39" viewBox="0 0 137 39" fill="none" xmlns="http://www.w3.org/2000/svg">
<g clip-path="url(#clip0_1_22539)">
<path d="M53.4402 15.2218C51.7058 15.2218 50.8477 16.5867 50.454 17.4671C50.2341 17.9588 50.1725 18.3474 49.9941 18.3474C49.7428 18.3474 49.9228 18.0096 49.7171 17.2604C49.4465 16.2747 48.6307 15.2218 46.8974 15.2218C45.0751 15.2218 44.295 16.7614 43.925 17.6074C43.672 18.1858 43.6717 18.3474 43.4771 18.3474C43.1952 18.3474 43.4288 17.888 43.5555 17.3479C43.8054 16.2845 43.6155 15.4718 43.6155 15.4718H40.7268V26.3339H44.6697C44.6697 26.3339 44.6697 21.7944 44.6697 20.9296C44.6697 19.8636 45.1156 18.511 45.8799 18.511C46.7631 18.511 46.9398 19.1892 46.9398 20.4451C46.9398 21.5837 46.9398 26.3363 46.9398 26.3363H50.8986C50.8986 26.3363 50.8986 21.7692 50.8986 20.9296C50.8986 19.9808 51.2858 18.511 52.1146 18.511C53.01 18.511 53.1686 19.4638 53.1686 20.4451C53.1686 21.4264 53.1686 26.3339 53.1686 26.3339H57.0561C57.0561 26.3339 57.0561 22.0301 57.0561 19.9464C57.0561 17.1117 56.0569 15.2218 53.4402 15.2218Z" fill="#6B7280"/>
<path d="M120.365 15.2218C118.631 15.2218 117.773 16.5867 117.379 17.4671C117.159 17.9588 117.098 18.3474 116.919 18.3474C116.668 18.3474 116.836 17.9183 116.642 17.2604C116.353 16.2799 115.634 15.2218 113.822 15.2218C112 15.2218 111.22 16.7614 110.85 17.6074C110.597 18.1858 110.597 18.3474 110.402 18.3474C110.12 18.3474 110.354 17.888 110.481 17.3479C110.73 16.2845 110.541 15.4718 110.541 15.4718H107.652V26.3339H111.595C111.595 26.3339 111.595 21.7944 111.595 20.9296C111.595 19.8636 112.041 18.511 112.805 18.511C113.688 18.511 113.865 19.1892 113.865 20.4451C113.865 21.5837 113.865 26.3363 113.865 26.3363H117.823C117.823 26.3363 117.823 21.7692 117.823 20.9296C117.823 19.9808 118.211 18.511 119.04 18.511C119.935 18.511 120.094 19.4638 120.094 20.4451C120.094 21.4264 120.094 26.3339 120.094 26.3339H123.981C123.981 26.3339 123.981 22.0301 123.981 19.9464C123.981 17.1117 122.982 15.2218 120.365 15.2218Z" fill="#6B7280"/>
<path d="M62.8287 23.7952C61.8858 24.0129 61.3971 23.7225 61.3971 23.0976C61.3971 22.2415 62.2825 21.8986 63.5465 21.8986C64.1036 21.8986 64.6275 21.9468 64.6275 21.9468C64.6275 22.3133 63.8321 23.5637 62.8287 23.7952ZM63.7886 15.2241C60.7683 15.2241 58.6011 16.3346 58.6011 16.3346V19.5986C58.6011 19.5986 60.9944 18.2225 62.9359 18.2225C64.4856 18.2225 64.676 19.0583 64.6054 19.752C64.6054 19.752 64.1586 19.6337 62.7946 19.6337C59.581 19.6337 57.9587 21.0943 57.9587 23.4363C57.9587 25.6578 59.782 26.5864 61.318 26.5864C63.5595 26.5864 64.5448 25.0802 64.8476 24.3655C65.0578 23.8698 65.096 23.5356 65.2848 23.5356C65.4998 23.5356 65.4275 23.7753 65.4171 24.2687C65.3988 25.1328 65.4395 25.786 65.5765 26.3363H68.5483V20.9906C68.5483 17.6531 67.3675 15.2241 63.7886 15.2241Z" fill="#6B7280"/>
<path d="M75.0432 26.3363H78.9862V12.1836H75.0432V26.3363Z" fill="#6B7280"/>
<path d="M83.3262 20.9052C83.3262 19.9285 84.2335 19.0399 85.8993 19.0399C87.7143 19.0399 89.1741 19.9138 89.5016 20.1123V16.3346C89.5016 16.3346 88.3483 15.2241 85.5136 15.2241C82.5254 15.2241 80.037 16.9727 80.037 20.7361C80.037 24.4996 82.2953 26.5864 85.5056 26.5864C88.0131 26.5864 89.5079 25.2086 89.5079 25.2086V21.6204C89.035 21.8851 87.7173 22.7995 85.9174 22.7995C84.0115 22.7995 83.3262 21.9228 83.3262 20.9052Z" fill="#6B7280"/>
<path d="M97.4888 15.2241C95.2063 15.2241 94.3381 17.3872 94.1628 17.7628C93.9874 18.1383 93.9008 18.3544 93.7572 18.3498C93.5081 18.3416 93.6818 17.8887 93.7789 17.5954C93.9625 17.0414 94.3515 15.5876 94.3515 13.8009C94.3515 12.5891 94.1876 12.1835 94.1876 12.1835H90.7838V26.3363H94.7268C94.7268 26.3363 94.7268 21.8122 94.7268 20.9321C94.7268 20.0516 95.0781 18.5133 96.0714 18.5133C96.8942 18.5133 97.1517 19.123 97.1517 20.3506C97.1517 21.578 97.1517 26.3363 97.1517 26.3363H101.095C101.095 26.3363 101.095 23.0258 101.095 20.5868C101.095 17.7986 100.633 15.2241 97.4888 15.2241Z" fill="#6B7280"/>
<path d="M102.376 15.4867V26.3363H106.319V15.4867C106.319 15.4867 105.657 15.8743 104.352 15.8743C103.047 15.8743 102.376 15.4867 102.376 15.4867Z" fill="#6B7280"/>
<path d="M104.336 12.0736C103.003 12.0736 101.922 12.7789 101.922 13.649C101.922 14.5189 103.003 15.2242 104.336 15.2242C105.669 15.2242 106.75 14.5189 106.75 13.649C106.75 12.7789 105.669 12.0736 104.336 12.0736Z" fill="#6B7280"/>
<path d="M69.8243 15.4867V26.3363H73.7672V15.4867C73.7672 15.4867 73.1045 15.8743 71.7998 15.8743C70.4952 15.8743 69.8243 15.4867 69.8243 15.4867Z" fill="#6B7280"/>
<path d="M71.784 12.0736C70.4512 12.0736 69.3705 12.7789 69.3705 13.649C69.3705 14.5189 70.4512 15.2242 71.784 15.2242C73.1171 15.2242 74.1977 14.5189 74.1977 13.649C74.1977 12.7789 73.1171 12.0736 71.784 12.0736Z" fill="#6B7280"/>
<path d="M130.733 24.0021C129.828 24.0021 129.163 22.8553 129.163 21.2575C129.163 19.7057 129.846 18.5134 130.702 18.5134C131.799 18.5134 132.267 19.5196 132.267 21.2575C132.267 23.0653 131.835 24.0021 130.733 24.0021ZM131.815 15.2218C129.788 15.2218 128.859 16.7417 128.455 17.6074C128.189 18.1796 128.202 18.3474 128.007 18.3474C127.726 18.3474 127.959 17.888 128.086 17.3479C128.336 16.2845 128.146 15.4718 128.146 15.4718H125.257V29.3338H129.2C129.2 29.3338 129.2 27.0655 129.2 24.9389C129.667 25.7304 130.531 26.5761 131.863 26.5761C134.715 26.5761 136.15 24.1638 136.15 20.9044C136.15 17.2102 134.432 15.2218 131.815 15.2218Z" fill="#6B7280"/>
<path d="M26.797 18.5027C27.0622 18.4711 27.3162 18.4696 27.5496 18.5027C27.6847 18.1929 27.708 17.6587 27.5864 17.0771C27.4058 16.2125 27.1614 15.6893 26.6562 15.7708C26.1511 15.8522 26.1324 16.4786 26.313 17.3431C26.4146 17.8294 26.5955 18.2451 26.797 18.5027Z" fill="#6B7280"/>
<path d="M22.4601 19.1868C22.8215 19.3455 23.0437 19.4506 23.1306 19.3587C23.1865 19.3014 23.1699 19.1921 23.0836 19.0511C22.9052 18.7599 22.5381 18.4646 22.1488 18.2987C21.3526 17.956 20.4031 18.07 19.6705 18.5963C19.4288 18.7735 19.1995 19.0189 19.2323 19.168C19.243 19.2162 19.2792 19.2525 19.364 19.2644C19.5634 19.2872 20.2601 18.9349 21.0627 18.8858C21.6292 18.8511 22.0986 19.0283 22.4601 19.1868Z" fill="#6B7280"/>
<path d="M21.733 19.6017C21.2622 19.676 21.0025 19.8312 20.8358 19.9755C20.6936 20.0998 20.6057 20.2373 20.6064 20.334C20.6067 20.3799 20.6267 20.4065 20.6424 20.4198C20.6639 20.4387 20.6893 20.4492 20.7198 20.4492C20.8262 20.4492 21.0643 20.3535 21.0643 20.3535C21.7195 20.1191 22.1516 20.1475 22.5799 20.1963C22.8166 20.2229 22.9284 20.2376 22.9803 20.1564C22.9958 20.1331 23.0143 20.0827 22.9669 20.0059C22.8566 19.8271 22.3813 19.5247 21.733 19.6017" fill="#6B7280"/>
<path d="M25.3326 21.1247C25.6522 21.2817 26.0041 21.22 26.1187 20.9869C26.2332 20.7539 26.067 20.4376 25.7473 20.2804C25.4277 20.1235 25.0758 20.1851 24.9611 20.4182C24.8467 20.6513 25.0129 20.9675 25.3326 21.1247Z" fill="#6B7280"/>
<path d="M27.3875 19.329C27.1279 19.3246 26.9126 19.6098 26.9065 19.9658C26.9004 20.322 27.1061 20.6142 27.3657 20.6186C27.6254 20.6231 27.8409 20.3379 27.8468 19.9818C27.8529 19.6256 27.6472 19.3333 27.3875 19.329Z" fill="#6B7280"/>
<path d="M9.94529 25.7501C9.88069 25.6692 9.77457 25.6938 9.6718 25.7178C9.60002 25.7346 9.5187 25.7534 9.42954 25.7519C9.23855 25.7481 9.07682 25.6666 8.98598 25.5271C8.86769 25.3454 8.87453 25.0745 9.00516 24.7646C9.02273 24.7226 9.04349 24.6762 9.06609 24.6256C9.27428 24.1583 9.6229 23.3762 9.23154 22.631C8.93697 22.0702 8.45658 21.7208 7.87898 21.6475C7.32448 21.5772 6.7536 21.7828 6.38946 22.1845C5.81498 22.8183 5.7252 23.6808 5.8363 23.9855C5.87704 24.0971 5.94069 24.1279 5.98699 24.1343C6.0847 24.1473 6.22923 24.0763 6.31978 23.8327C6.32625 23.8152 6.33487 23.788 6.34567 23.7535C6.38607 23.6248 6.46118 23.3849 6.58422 23.1927C6.73258 22.961 6.96365 22.8014 7.23487 22.7433C7.51119 22.6841 7.79359 22.7369 8.02999 22.8917C8.43248 23.1549 8.58744 23.648 8.41562 24.1186C8.32682 24.3619 8.18252 24.8271 8.21438 25.2096C8.27869 25.9833 8.75461 26.2941 9.18224 26.3271C9.598 26.3427 9.88856 26.1094 9.96207 25.9388C10.0055 25.8379 9.96884 25.7765 9.9453 25.7501" fill="#6B7280"/>
<path d="M13.8977 11.5381C15.2537 9.97122 16.923 8.60898 18.4183 7.84406C18.4701 7.8175 18.5249 7.87374 18.4969 7.92444C18.3781 8.13947 18.1496 8.59993 18.0771 8.94917C18.0658 9.00359 18.125 9.04452 18.1709 9.01323C19.1012 8.37912 20.7196 7.69962 22.1391 7.61228C22.2 7.6085 22.2295 7.68672 22.181 7.72395C21.9651 7.88959 21.729 8.11871 21.5565 8.3505C21.5271 8.38993 21.5548 8.44674 21.604 8.44704C22.6007 8.45414 24.0058 8.80295 24.9217 9.31664C24.9837 9.35132 24.9395 9.47132 24.8702 9.45545C23.4845 9.13795 21.2163 8.89697 18.8602 9.47163C16.7568 9.98474 15.1513 10.7768 13.9802 11.6286C13.9209 11.6718 13.8499 11.5936 13.8977 11.5381L13.8977 11.5381ZM20.6512 26.7198C20.6514 26.7201 20.6515 26.7206 20.6516 26.7206C20.6519 26.721 20.652 26.7219 20.6525 26.7223C20.652 26.7215 20.6516 26.7206 20.6512 26.7198ZM26.2432 27.3799C26.2833 27.363 26.3111 27.3171 26.3063 27.2716C26.3007 27.2155 26.2507 27.1748 26.1947 27.1805C26.1947 27.1805 23.3008 27.6088 20.5671 26.6082C20.8649 25.6403 21.6567 25.9897 22.8534 26.0864C25.0105 26.215 26.9437 25.8999 28.3725 25.4897C29.6107 25.1345 31.2367 24.4339 32.4998 23.437C32.9258 24.3729 33.0762 25.4026 33.0762 25.4026C33.0762 25.4026 33.406 25.3438 33.6815 25.5133C33.942 25.6735 34.133 26.0066 34.0025 26.868C33.7369 28.4771 33.0529 29.783 31.9035 30.9845C31.2037 31.7377 30.3542 32.3926 29.3823 32.8688C28.8661 33.1399 28.3165 33.3745 27.7359 33.564C23.4024 34.9793 18.9667 33.4234 17.5368 30.082C17.4228 29.8308 17.3263 29.5678 17.2502 29.2927C16.6408 27.0908 17.1581 24.4491 18.7751 22.7862C18.7753 22.7861 18.775 22.7854 18.7751 22.7854C18.8748 22.6795 18.9765 22.5548 18.9765 22.3979C18.9765 22.2667 18.8932 22.1282 18.8208 22.03C18.255 21.2095 16.2954 19.8112 16.6887 17.1052C16.9712 15.1612 18.6713 13.7921 20.2564 13.8732C20.3904 13.8802 20.5246 13.8884 20.6582 13.8962C21.3451 13.937 21.9443 14.0251 22.5098 14.0487C23.4562 14.0896 24.3073 13.952 25.3153 13.1122C25.6553 12.8288 25.9279 12.5832 26.3892 12.5051C26.4377 12.4968 26.5583 12.4535 26.7994 12.4649C27.0454 12.4779 27.2797 12.5456 27.4902 12.6857C28.2984 13.2234 28.4129 14.5258 28.4549 15.4786C28.4787 16.0224 28.5446 17.3382 28.567 17.7159C28.6184 18.5796 28.8455 18.7013 29.3047 18.8526C29.5631 18.9377 29.8029 19.001 30.1562 19.1003C31.2259 19.4006 31.8602 19.7053 32.2598 20.0967C32.4983 20.3412 32.6092 20.6012 32.6435 20.849C32.7695 21.7691 31.929 22.9059 29.7039 23.9387C27.2716 25.0676 24.3208 25.3534 22.282 25.1264C22.1257 25.1091 21.5696 25.0461 21.5677 25.0457C19.9369 24.8261 19.0066 26.9337 19.9853 28.3776C20.6162 29.3082 22.3344 29.9139 24.0534 29.9142C27.995 29.9146 31.0245 28.2314 32.1514 26.7778C32.1852 26.7344 32.1885 26.7296 32.2416 26.6493C32.2971 26.5658 32.2514 26.5196 32.1823 26.567C31.2615 27.1969 27.1719 29.6981 22.7975 28.9456C22.7975 28.9456 22.266 28.8583 21.7808 28.6695C21.3952 28.5196 20.5882 28.1482 20.4902 27.3203C24.0203 28.412 26.2432 27.3799 26.2432 27.3799V27.3799ZM6.85308 18.9903C5.62535 19.2291 4.54325 19.9249 3.88159 20.886C3.48606 20.5562 2.74926 19.9176 2.61916 19.6688C1.56273 17.6629 3.77205 13.7629 5.31543 11.5604C9.12966 6.11731 15.1036 1.99734 17.869 2.7449C18.3187 2.87214 19.8075 4.59845 19.8075 4.59845C19.8075 4.59845 17.0433 6.13228 14.4797 8.27027C11.0255 10.93 8.41621 14.7956 6.85308 18.9903ZM8.91614 28.195C8.7303 28.2268 8.54077 28.2394 8.3496 28.2348C6.50233 28.1852 4.50693 26.5221 4.30864 24.5499C4.08949 22.37 5.20335 20.6923 7.17551 20.2944C7.41128 20.247 7.69622 20.2195 8.00348 20.2355C9.10846 20.296 10.7368 21.1445 11.1088 23.5517C11.4383 25.6837 10.915 27.8541 8.91614 28.195V28.195ZM33.94 24.3349C33.9242 24.279 33.8211 23.9022 33.6795 23.4481C33.5379 22.9938 33.3912 22.6743 33.3912 22.6743C33.9593 21.8237 33.9694 21.063 33.8939 20.6321C33.8132 20.0981 33.5909 19.643 33.1428 19.1726C32.6946 18.7022 31.7782 18.2204 30.4901 17.8587C30.3428 17.8173 29.857 17.684 29.8143 17.6711C29.8109 17.6432 29.7787 16.0778 29.7495 15.4058C29.7281 14.92 29.6864 14.1616 29.4511 13.4147C29.1707 12.4036 28.682 11.5188 28.0722 10.9528C29.7553 9.20824 30.8059 7.28632 30.8034 5.63757C30.7985 2.46684 26.9046 1.50752 22.1058 3.49454C22.1008 3.4966 21.0964 3.92252 21.0891 3.92608C21.0845 3.92178 19.251 2.12265 19.2234 2.09863C13.7522 -2.67354 -3.35399 16.3404 2.11519 20.9583L3.31042 21.9709C3.00039 22.7741 2.87856 23.6943 2.97808 24.6838C3.10581 25.9547 3.76139 27.173 4.82398 28.1142C5.83267 29.008 7.15888 29.5736 8.44587 29.5726C10.5742 34.4772 15.4371 37.486 21.1388 37.6553C27.255 37.837 32.3891 34.967 34.5405 29.8118C34.6812 29.4499 35.2784 27.8197 35.2784 26.3807C35.2784 24.9343 34.4607 24.3349 33.94 24.3349Z" fill="#6B7280"/>
</g>
<defs>
<clipPath id="clip0_1_22539">
<rect width="136" height="37.2277" fill="white" transform="translate(0.599976 0.886108)"/>
</clipPath>
</defs>
</svg>
