<svg width="151" height="33" viewBox="0 0 151 33" fill="none" xmlns="http://www.w3.org/2000/svg">
<g clip-path="url(#clip0_1_22535)">
<path d="M150.177 15.3727V12.7336H146.9V8.63208L146.79 8.66724L143.714 9.60474H143.655V12.7102H138.799V10.9758C138.799 10.179 138.986 9.55786 139.338 9.14771C139.689 8.73755 140.205 8.53247 140.838 8.53247C141.307 8.53247 141.799 8.64966 142.268 8.8606L142.385 8.90747V6.14067L142.338 6.11724C141.893 5.95903 141.283 5.877 140.533 5.877C139.584 5.877 138.717 6.08794 137.955 6.50278C137.193 6.90122 136.596 7.49888 136.186 8.24888C135.764 8.99888 135.553 9.86607 135.553 10.8153V12.7137H133.279V15.3504H135.564V26.4598H138.834V15.3504H143.694V22.4051C143.694 25.3114 145.06 26.7879 147.772 26.7879C148.217 26.7879 148.686 26.7317 149.155 26.6356C149.641 26.5301 149.975 26.4247 150.163 26.3192L150.209 26.2957V23.6356L150.077 23.7247C149.901 23.8418 149.679 23.9438 149.421 24.0141C149.163 24.0844 148.94 24.1313 148.774 24.1313C148.141 24.1313 147.672 23.9672 147.384 23.6309C147.086 23.2969 146.939 22.7051 146.939 21.8731V15.3809H150.196L150.189 15.3645L150.177 15.3727ZM125.93 24.1383C124.743 24.1383 123.806 23.7434 123.141 22.9665C122.482 22.1872 122.145 21.075 122.145 19.6618C122.145 18.204 122.482 17.0602 123.145 16.268C123.806 15.4805 124.734 15.0797 125.906 15.0797C127.043 15.0797 127.933 15.4618 128.589 16.2165C129.246 16.9758 129.574 18.1079 129.574 19.5821C129.574 21.075 129.269 22.2223 128.66 22.9887C128.05 23.7504 127.136 24.1372 125.941 24.1372L125.93 24.1383ZM126.082 12.4032C123.82 12.4032 122.018 13.0665 120.733 14.3766C119.456 15.6891 118.802 17.5008 118.802 19.7672C118.802 21.9235 119.435 23.652 120.692 24.9118C121.946 26.1774 123.654 26.8336 125.763 26.8336C127.957 26.8336 129.724 26.154 131.004 24.8356C132.293 23.509 132.932 21.7114 132.932 19.5C132.932 17.3133 132.323 15.5672 131.116 14.3204C129.909 13.0618 128.217 12.4266 126.077 12.4266L126.082 12.4032ZM113.514 12.4266C111.968 12.4266 110.697 12.8204 109.718 13.5985C108.743 14.3813 108.241 15.4032 108.241 16.6454C108.241 17.2946 108.351 17.8641 108.564 18.3563C108.775 18.8415 109.104 19.2704 109.542 19.6313C109.975 19.9829 110.643 20.3579 111.534 20.7422C112.284 21.0469 112.835 21.3047 113.191 21.5157C113.543 21.7114 113.791 21.9141 113.918 22.1098C114.058 22.2973 114.129 22.5668 114.129 22.8833C114.129 23.8137 113.439 24.2614 112.019 24.2614C111.489 24.2614 110.887 24.1512 110.229 23.9333C109.564 23.7176 108.948 23.4059 108.392 23.0051L108.252 22.9114V26.052L108.298 26.0754C108.767 26.2864 109.345 26.4739 110.033 26.6145C110.718 26.7668 111.345 26.8372 111.884 26.8372C113.56 26.8372 114.908 26.4387 115.892 25.6606C116.877 24.8731 117.38 23.8208 117.38 22.5387C117.38 21.6129 117.111 20.8161 116.578 20.1774C116.05 19.5375 115.136 18.954 113.855 18.4383C112.844 18.0282 112.191 17.6883 111.91 17.4305C111.652 17.1774 111.532 16.8211 111.532 16.3711C111.532 15.9727 111.696 15.6516 112.03 15.3938C112.365 15.1301 112.834 14.9989 113.42 14.9989C113.964 14.9989 114.521 15.0809 115.084 15.2508C115.634 15.4243 116.121 15.6493 116.525 15.9258L116.662 16.0196V13.0196L116.615 12.9961C116.234 12.8321 115.74 12.695 115.139 12.586C114.541 12.4723 113.998 12.4219 113.527 12.4219L113.514 12.4266ZM99.6992 24.1524C98.5156 24.1524 97.5781 23.761 96.9219 22.9805C96.2539 22.2071 95.9199 21.0938 95.9199 19.6758C95.9199 18.2227 96.2551 17.0743 96.9207 16.2856C97.577 15.4981 98.5074 15.0973 99.6746 15.0973C100.811 15.0973 101.714 15.4793 102.364 16.234C103.011 16.9958 103.348 18.1278 103.348 19.602C103.348 21.0926 103.032 22.2387 102.423 23.0063C101.825 23.768 100.911 24.1547 99.7039 24.1547L99.6992 24.1524ZM99.868 12.4243C97.5945 12.4243 95.7898 13.0852 94.5125 14.3954C93.227 15.7079 92.5789 17.5184 92.5789 19.786C92.5789 21.9422 93.2117 23.6696 94.4574 24.9305C95.7137 26.1961 97.4176 26.8524 99.5258 26.8524C101.729 26.8524 103.487 26.1727 104.776 24.8485C106.058 23.5196 106.709 21.7219 106.709 19.5106C106.709 17.3227 106.1 15.5766 104.905 14.3309C103.698 13.0711 102.003 12.436 99.8656 12.436L99.868 12.4243ZM87.6336 15.1407V12.75H84.3992V26.4961H87.6336V19.4649C87.6336 18.2696 87.9031 17.2852 88.4387 16.5411C88.966 15.8004 89.6691 15.4395 90.5246 15.4395C90.8176 15.4395 91.1457 15.4864 91.5066 15.5801C91.8582 15.6739 92.1113 15.7676 92.2566 15.8848L92.3973 15.9786V12.7208L92.3457 12.6973C92.041 12.5614 91.6191 12.4958 91.0801 12.4958C90.2715 12.4958 89.5449 12.7583 88.9215 13.2692C88.3707 13.7239 87.9758 14.3426 87.6734 15.1161H87.6148L87.6441 15.1395L87.6336 15.1407ZM78.5867 12.4219C77.0984 12.4219 75.7742 12.7325 74.6492 13.3594C73.5148 13.9922 72.6453 14.8829 72.0477 16.0313C71.4617 17.168 71.157 18.4981 71.157 19.9805C71.157 21.2813 71.4523 22.4696 72.0242 23.5219C72.6031 24.5766 73.4188 25.3969 74.45 25.9711C75.4742 26.5372 76.6648 26.8266 77.982 26.8266C79.5195 26.8266 80.8297 26.5219 81.8844 25.9125L81.9313 25.8891V22.9219L81.7906 23.0192C81.3137 23.3708 80.7828 23.6461 80.2086 23.8454C79.6367 24.0446 79.1164 24.1454 78.6617 24.1454C77.3891 24.1454 76.3719 23.7469 75.6312 22.9676C74.8812 22.1707 74.5063 21.0692 74.5063 19.6864C74.5063 18.2801 74.9047 17.1551 75.6734 16.3348C76.4469 15.4911 77.4641 15.0692 78.7086 15.0692C79.7633 15.0692 80.8027 15.4325 81.7824 16.1356L81.923 16.2293V13.1122L81.8844 13.0887C81.5152 12.8778 81.0137 12.7137 80.3844 12.5801C79.768 12.4512 79.1609 12.3879 78.582 12.3879L78.5867 12.4219ZM68.9375 12.7161H65.7078V26.4739H68.9422V12.7161H68.9375ZM67.3438 6.86841C66.8117 6.86841 66.3477 7.04888 65.9656 7.40747C65.5836 7.76841 65.3891 8.22075 65.3891 8.75513C65.3891 9.28247 65.5848 9.72778 65.9633 10.0793C66.3383 10.4309 66.807 10.6043 67.3461 10.6043C67.8852 10.6043 68.3539 10.4286 68.7348 10.077C69.1191 9.72544 69.3137 9.28013 69.3137 8.75278C69.3137 8.23716 69.1262 7.79185 68.7512 7.41685C68.3762 7.06528 67.9074 6.87778 67.3449 6.87778L67.3438 6.86841ZM59.2707 11.7176V26.4832H62.5754V7.31255H58.0051L52.2125 21.5602L46.5758 7.3102H41.825V26.4961H44.9305V11.7364H45.0359L50.9891 26.4997H53.327L59.1863 11.7375H59.2977L59.2801 11.7305L59.2707 11.7176ZM17.0012 17.6825H32.2121V32.9063H16.9777L16.9988 17.693L17.0012 17.6825ZM0.2 17.6918H15.4086V32.9063H0.195312L0.2 17.693V17.6918ZM17.0023 0.890674H32.2133V16.1016H16.993L17.0023 0.885986V0.890674ZM0.2 0.88833H15.4086V16.1016H0.195312L0.2 0.885986V0.88833Z" fill="#6B7280"/>
</g>
<defs>
<clipPath id="clip0_1_22535">
<rect width="150" height="32.8125" fill="white" transform="translate(0.200012 0.09375)"/>
</clipPath>
</defs>
</svg>
