<svg width="129" height="41" viewBox="0 0 129 41" fill="none" xmlns="http://www.w3.org/2000/svg">
<path d="M51.9488 18.6535C55.8435 19.6003 57.4313 21.0704 57.4313 23.7284C57.4313 26.8733 55.0285 28.9056 51.3096 28.9056C48.681 28.9056 46.2441 27.9718 44.2635 26.2035C44.2229 26.1672 44.198 26.1165 44.1942 26.0621C44.1905 26.0077 44.2082 25.954 44.2435 25.9125L45.9936 23.8307C46.0115 23.8095 46.0334 23.792 46.0581 23.7792C46.0828 23.7665 46.1097 23.7588 46.1374 23.7566C46.1651 23.7544 46.193 23.7578 46.2194 23.7665C46.2458 23.7752 46.2702 23.789 46.2912 23.8072C47.9936 25.2809 49.5155 25.9089 51.3808 25.9089C53.0608 25.9089 54.1046 25.1815 54.1046 24.0124C54.1046 22.9569 53.5883 22.3671 50.5293 21.6626C46.9362 20.7934 44.8563 19.6691 44.8563 16.4906C44.8563 13.5269 47.2673 11.4569 50.718 11.4569C53.0644 11.4569 55.0737 12.152 56.8573 13.5827C56.9432 13.6521 56.9608 13.7768 56.8967 13.8673L55.3354 16.0667C55.3191 16.0893 55.2985 16.1084 55.2747 16.123C55.251 16.1376 55.2246 16.1474 55.197 16.1518C55.1695 16.1561 55.1413 16.155 55.1142 16.1485C55.0871 16.142 55.0616 16.1301 55.039 16.1137C53.5407 14.9964 52.1117 14.4542 50.6698 14.4542C49.1832 14.4542 48.1835 15.1687 48.1835 16.2301C48.1835 17.3533 48.7539 17.8885 51.9494 18.6517L51.9488 18.6535ZM65.8445 15.5015C64.2333 15.5015 62.9113 16.1366 61.8205 17.4362V15.972C61.8205 15.9165 61.7984 15.8632 61.7592 15.824C61.7199 15.7847 61.6667 15.7626 61.6111 15.7626H58.7497C58.6941 15.7626 58.6409 15.7847 58.6016 15.824C58.5624 15.8632 58.5403 15.9165 58.5403 15.972V32.2434C58.5403 32.3581 58.6344 32.4522 58.7497 32.4522H61.6117C61.7276 32.4522 61.8217 32.3581 61.8217 32.2429V27.1062C62.9119 28.3294 64.2345 28.928 65.8463 28.928C68.8424 28.928 71.8739 26.6228 71.8739 22.2148C71.8739 17.8067 68.8407 15.5015 65.8445 15.5015ZM68.5437 22.2154C68.5437 24.4594 67.1618 26.0259 65.1824 26.0259C63.2242 26.0259 61.7482 24.3882 61.7482 22.2154C61.7482 20.0425 63.2242 18.4048 65.1824 18.4048C67.13 18.4048 68.5443 20.0072 68.5443 22.2154H68.5437ZM79.6444 15.5015C75.7868 15.5015 72.7654 18.4712 72.7654 22.2642C72.7654 26.0148 75.7656 28.9533 79.5962 28.9533C83.4674 28.9533 86.4982 25.993 86.4982 22.2154C86.4982 18.4506 83.4873 15.501 79.6438 15.501L79.6444 15.5015ZM79.6438 26.0489C77.5915 26.0489 76.0449 24.4006 76.0449 22.2148C76.0449 20.0201 77.5386 18.4277 79.5968 18.4277C81.6609 18.4277 83.2192 20.076 83.2192 22.263C83.2192 24.4564 81.715 26.0483 79.6438 26.0483V26.0489ZM94.7356 15.7626C94.8515 15.7626 94.945 15.8567 94.945 15.972V18.4318C94.9451 18.4593 94.9397 18.4865 94.9293 18.5119C94.9188 18.5373 94.9035 18.5604 94.8841 18.5798C94.8647 18.5993 94.8416 18.6147 94.8163 18.6252C94.7909 18.6357 94.7637 18.6412 94.7362 18.6412H91.5872V24.5576C91.5872 25.4926 91.9977 25.9089 92.9162 25.9089C93.5007 25.9121 94.0771 25.7728 94.5957 25.5032C94.6278 25.4873 94.6633 25.4798 94.6991 25.4815C94.7348 25.4832 94.7696 25.4939 94.8 25.5128C94.8304 25.5316 94.8555 25.5579 94.873 25.5891C94.8904 25.6204 94.8996 25.6556 94.8997 25.6913V28.033C94.8997 28.1077 94.8586 28.1782 94.7939 28.2153C93.9912 28.6698 93.1397 28.8815 92.1123 28.8815C89.5878 28.8815 88.3076 27.5778 88.3076 25.0051V18.6418H86.9316C86.9042 18.6417 86.877 18.6362 86.8517 18.6256C86.8264 18.6151 86.8035 18.5996 86.7841 18.5802C86.7648 18.5607 86.7495 18.5377 86.7391 18.5123C86.7287 18.487 86.7233 18.4598 86.7234 18.4324V15.972C86.7234 15.8567 86.8163 15.7626 86.9316 15.7626H88.3076V12.5424C88.3076 12.4272 88.4017 12.3331 88.5182 12.3331H91.3796C91.4955 12.3331 91.589 12.4272 91.589 12.5424V15.7626H94.738H94.7356ZM110.598 15.775C110.685 15.775 110.763 15.8279 110.794 15.9102L114.137 24.6334L117.189 15.9149C117.204 15.8738 117.23 15.8381 117.266 15.8128C117.301 15.7876 117.344 15.7739 117.387 15.7738H120.367C120.401 15.7738 120.435 15.7821 120.465 15.7981C120.495 15.8141 120.521 15.8372 120.54 15.8655C120.559 15.8937 120.571 15.9263 120.575 15.9602C120.579 15.9942 120.574 16.0285 120.561 16.0602L115.596 28.8915C114.567 31.5395 113.398 32.5239 111.285 32.5239C110.155 32.5239 109.241 32.2899 108.227 31.7418C108.181 31.7167 108.146 31.6746 108.129 31.6243C108.112 31.574 108.116 31.5193 108.138 31.4713L109.108 29.3426C109.12 29.3163 109.137 29.2928 109.158 29.2734C109.18 29.254 109.205 29.2391 109.232 29.2297C109.259 29.2209 109.288 29.2178 109.317 29.2205C109.346 29.2232 109.374 29.2317 109.399 29.2455C109.942 29.5425 110.473 29.6925 110.978 29.6925C111.601 29.6925 112.058 29.4878 112.523 28.4564L108.43 18.6418H105.757V28.4593C105.757 28.5752 105.663 28.6693 105.548 28.6693H102.686C102.658 28.6693 102.631 28.6638 102.605 28.6533C102.58 28.6427 102.557 28.6272 102.537 28.6077C102.518 28.5882 102.502 28.5651 102.492 28.5396C102.481 28.5141 102.476 28.4869 102.476 28.4593V18.6418H101.101C101.046 18.6413 100.993 18.619 100.953 18.5798C100.914 18.5405 100.892 18.4874 100.891 18.4318V15.9602C100.891 15.8444 100.985 15.7503 101.101 15.7503H102.476V15.1446C102.476 12.3302 103.873 10.8412 106.517 10.8412C107.603 10.8412 108.328 11.0147 108.895 11.1823C108.985 11.2099 109.044 11.2917 109.044 11.3834V13.7944C109.045 13.8278 109.037 13.8607 109.022 13.8905C109.007 13.9203 108.985 13.9461 108.958 13.9657C108.931 13.9853 108.9 13.9981 108.867 14.0031C108.834 14.0081 108.801 14.0051 108.769 13.9944C108.232 13.8156 107.753 13.6968 107.157 13.6968C106.157 13.6968 105.71 14.2161 105.71 15.3798V15.775H110.598H110.598ZM99.3478 15.7626C99.463 15.7626 99.5571 15.8567 99.5571 15.972V28.4587C99.5571 28.574 99.463 28.6681 99.3472 28.6681H96.4851C96.4295 28.6681 96.3762 28.646 96.3369 28.6068C96.2975 28.5676 96.2753 28.5143 96.2752 28.4587V15.972C96.2752 15.8567 96.3693 15.7626 96.4845 15.7626H99.3466H99.3478ZM97.9311 10.0773C98.4754 10.0773 98.9975 10.2936 99.3823 10.6784C99.7672 11.0633 99.9834 11.5853 99.9834 12.1296C99.9834 12.6739 99.7672 13.196 99.3823 13.5808C98.9975 13.9657 98.4754 14.1819 97.9311 14.1819C97.3868 14.1819 96.8648 13.9657 96.4799 13.5808C96.0951 13.196 95.8788 12.6739 95.8788 12.1296C95.8788 11.5853 96.0951 11.0633 96.4799 10.6784C96.8648 10.2936 97.3868 10.0773 97.9311 10.0773ZM123.005 19.7767C122.74 19.7777 122.477 19.7263 122.233 19.6254C121.988 19.5246 121.765 19.3763 121.578 19.189C121.391 19.0018 121.243 18.7794 121.142 18.5346C121.041 18.2897 120.989 18.0274 120.991 17.7626C120.991 17.4968 121.043 17.2335 121.145 16.9879C121.246 16.7423 121.396 16.5191 121.584 16.3312C121.772 16.1432 121.995 15.9941 122.24 15.8924C122.486 15.7907 122.749 15.7384 123.015 15.7385C123.28 15.7374 123.542 15.7886 123.787 15.8893C124.032 15.9901 124.254 16.1383 124.442 16.3254C124.629 16.5126 124.777 16.7349 124.878 16.9797C124.979 17.2244 125.03 17.4867 125.029 17.7514C125.029 18.0174 124.977 18.2808 124.875 18.5265C124.774 18.7723 124.625 18.9956 124.436 19.1837C124.248 19.3718 124.025 19.521 123.78 19.6229C123.534 19.7247 123.271 19.7772 123.005 19.7773V19.7767ZM123.015 15.9391C121.984 15.9391 121.203 16.7594 121.203 17.7632C121.203 18.767 121.978 19.5762 123.005 19.5762C124.036 19.5762 124.818 18.7564 124.818 17.752C124.818 16.7482 124.041 15.9391 123.015 15.9391ZM123.462 17.959L124.031 18.7564H123.551L123.039 18.0249H122.598V18.7564H122.195V16.6424H123.139C123.629 16.6424 123.953 16.8941 123.953 17.3169C123.953 17.6638 123.753 17.8755 123.462 17.9578L123.462 17.959ZM123.12 17.0052H122.597V17.6732H123.12C123.383 17.6732 123.538 17.545 123.538 17.338C123.538 17.1205 123.383 17.0046 123.12 17.0046V17.0052ZM20.0957 1.56348C9.87178 1.56348 1.58374 9.96677 1.58374 20.1913C1.58315 29.7983 8.89972 37.5536 18.2651 38.7297H21.9263C31.2917 37.5536 38.6082 29.7983 38.6082 20.1907C38.6082 9.96677 30.3196 1.56348 20.0963 1.56348H20.0957ZM28.5854 28.2647C28.5066 28.3942 28.4029 28.5069 28.2805 28.5962C28.158 28.6856 28.0191 28.75 27.8717 28.7856C27.7243 28.8212 27.5714 28.8274 27.4216 28.8038C27.2718 28.7802 27.1281 28.7273 26.9989 28.6481C22.6514 25.9913 17.1801 25.3914 10.7362 26.8633C10.5886 26.8973 10.4357 26.9018 10.2863 26.8766C10.1369 26.8514 9.99389 26.797 9.86554 26.7165C9.73718 26.636 9.62597 26.5309 9.53824 26.4074C9.45051 26.2839 9.38801 26.1443 9.35429 25.9965C9.32036 25.8488 9.31591 25.6958 9.34118 25.5464C9.36646 25.3969 9.42097 25.2539 9.5016 25.1255C9.58222 24.9972 9.68738 24.886 9.81104 24.7983C9.9347 24.7106 10.0744 24.6482 10.2223 24.6146C17.2742 23.0033 23.3229 23.6973 28.2026 26.6787C28.4635 26.8386 28.6503 27.0954 28.7219 27.3929C28.7936 27.6904 28.7443 28.0041 28.5848 28.2653L28.5854 28.2647ZM30.8506 23.2239C30.6503 23.5499 30.3288 23.7831 29.9566 23.8722C29.5845 23.9613 29.1922 23.899 28.8659 23.699C23.891 20.6411 16.3051 19.7549 10.4187 21.542C10.0523 21.6526 9.65708 21.6135 9.31949 21.4333C8.98191 21.2531 8.72947 20.9465 8.61746 20.5806C8.38812 19.8161 8.8174 19.0122 9.5801 18.7811C16.3045 16.7406 24.6625 17.7285 30.3766 21.2392C30.7026 21.4396 30.9357 21.7612 31.0247 22.1333C31.1137 22.5055 31.0513 22.8977 30.8512 23.2239H30.8506ZM31.0458 17.9749C25.0783 14.4313 15.2354 14.1055 9.53894 15.8344C9.09944 15.9676 8.62503 15.9207 8.22008 15.7041C7.81512 15.4875 7.51279 15.1189 7.3796 14.6794C7.24641 14.2399 7.29327 13.7655 7.50986 13.3606C7.72645 12.9556 8.09504 12.6533 8.53454 12.5201C15.0737 10.5354 25.9445 10.9188 32.8141 14.9958C33.0097 15.1118 33.1806 15.2652 33.3169 15.4472C33.4532 15.6293 33.5523 15.8364 33.6086 16.0567C33.6648 16.2771 33.6771 16.5063 33.6447 16.7314C33.6123 16.9565 33.5359 17.1731 33.4198 17.3686C33.3039 17.5644 33.1505 17.7353 32.9684 17.8717C32.7863 18.0081 32.5792 18.1073 32.3587 18.1636C32.1383 18.2198 31.9089 18.2321 31.6837 18.1996C31.4586 18.1671 31.242 18.0906 31.0464 17.9743L31.0458 17.9749Z" fill="#6B7280"/>
</svg>
