<svg width="132" height="29" viewBox="0 0 132 29" fill="none" xmlns="http://www.w3.org/2000/svg">
<g clip-path="url(#clip0_1_22562)">
<path fill-rule="evenodd" clip-rule="evenodd" d="M20.7493 1.37725V16.5582C20.7493 21.6275 18.5053 23.7327 13.242 23.7327C7.97831 23.7327 5.73431 21.6275 5.73431 16.5582V0.71228H0.664972C0.221959 0.71228 0 0.934239 0 1.37725V16.8072C0 25.2846 5.40205 28.2487 13.242 28.2487C21.0816 28.2487 26.4836 25.2846 26.4836 16.8072V0.71228H21.4138C20.9708 0.71228 20.7493 0.934239 20.7493 1.37725Z" fill="#6B7280"/>
<path fill-rule="evenodd" clip-rule="evenodd" d="M94.2394 5.1171C94.6548 5.1171 94.8488 4.97877 94.9871 4.67364L96.4558 1.04454C96.539 0.823486 96.4558 0.71228 96.2339 0.71228H75.8173C73.9055 0.71228 73.1859 1.29407 73.1859 2.59599V26.1707C73.1859 27.2791 73.7392 27.7777 75.2079 27.7777H94.2394C94.6548 27.7777 94.8488 27.6389 94.9871 27.3347L96.4558 23.7051C96.539 23.4836 96.4558 23.3729 96.2339 23.3729H78.8094V18.5802C78.8094 16.918 79.7235 16.1698 82.1885 16.1698H89.7519C90.1673 16.1698 90.3608 16.032 90.4995 15.7273L91.9127 12.2365C91.9954 12.0146 91.9127 11.9043 91.6907 11.9043H78.8094V5.1171H94.2394Z" fill="#6B7280"/>
<path fill-rule="evenodd" clip-rule="evenodd" d="M52.979 23.4285H42.9755V18.4694C42.9755 16.8072 43.8896 16.0595 46.3555 16.0595H52.979C56.1646 16.0595 57.0511 17.2783 57.0511 19.7718C57.0511 22.2649 56.1646 23.4285 52.979 23.4285ZM42.9755 5.0615H51.9262C54.9179 5.0615 55.7492 6.18847 55.7492 8.52424C55.7492 10.8605 54.9179 11.9874 51.9262 11.9874H42.9755V5.0615ZM58.2979 13.5109C60.5139 12.3473 61.4279 10.1589 61.4279 7.58261C61.4279 1.59876 56.5525 0.71228 51.5107 0.71228H39.9865C38.0748 0.71228 37.3551 1.29407 37.3551 2.59599V26.1707C37.3551 27.2791 37.9089 27.7777 39.3771 27.7777H53.5608C58.9073 27.7777 62.7298 25.7001 62.7298 20.298C62.7298 17.0568 61.3447 14.3142 58.2979 13.5109Z" fill="#6B7280"/>
<path fill-rule="evenodd" clip-rule="evenodd" d="M121.262 13.2613H111.843V5.06195H121.262C124.78 5.06195 125.555 6.41902 125.555 9.16164C125.555 11.9318 124.78 13.2613 121.262 13.2613ZM131.844 27.3067L125.777 16.8904C128.797 16.1151 131.235 14.1207 131.235 9.05088C131.235 2.48569 127.162 0.71228 120.431 0.71228H108.851C106.94 0.71228 106.219 1.29407 106.219 2.59599V27.1127C106.219 27.5557 106.441 27.7777 106.884 27.7777H111.843V19.8826C111.843 18.2204 112.757 17.4722 115.223 17.4722H120.209L125.694 27.3347C125.86 27.6114 126.027 27.7777 126.442 27.7777H131.595C131.955 27.7777 131.955 27.4726 131.844 27.3067Z" fill="#6B7280"/>
</g>
<defs>
<clipPath id="clip0_1_22562">
<rect width="132" height="27.5753" fill="white" transform="translate(0 0.71228)"/>
</clipPath>
</defs>
</svg>
